<?xml version="1.0" encoding="UTF-8"?>
<svg id="Layer_2" data-name="Layer 2" xmlns="http://www.w3.org/2000/svg" xmlns:xlink="http://www.w3.org/1999/xlink" viewBox="0 0 256 256">
  <defs>
    <style>
      .cls-1 {
        fill: #231f20;
        stroke: #fff;
        stroke-miterlimit: 10;
        stroke-width: 11px;
      }

      .cls-2 {
        fill: #fff;
      }

      .cls-3 {
        fill: none;
      }

      .cls-4 {
        fill: #231f20;
      }

      .cls-5 {
        fill: #f2db6b;
      }

      .cls-6 {
        fill: #f6f191;
        opacity: .26;
      }

      .cls-7 {
        clip-path: url(#clippath);
      }
    </style>
    <clipPath id="clippath">
      <circle class="cls-3" cx="128" cy="128" r="128"/>
    </clipPath>
  </defs>
  <g>
    <circle class="cls-4" cx="128" cy="128" r="128"/>
    <g class="cls-7">
      <g>
        <g>
          <polyline class="cls-4" points="127.36 128.64 268.16 128.64 226.92 29.08 127.36 128.64"/>
          <polyline class="cls-4" points="127.36 128.64 127.36 -12.16 27.8 29.08 127.36 128.64"/>
          <polyline class="cls-4" points="127.36 128.64 -13.44 128.64 29.52 226.48"/>
          <line class="cls-4" x1="127.36" y1="128.64" x2="27.8" y2="228.2"/>
          <polyline class="cls-4" points="127.36 128.64 127.36 269.44 225.2 226.48"/>
          <line class="cls-4" x1="127.36" y1="128.64" x2="226.92" y2="228.2"/>
        </g>
        <g>
          <polyline class="cls-5" points="127.36 128.64 268.16 128.64 226.92 29.08 127.36 128.64"/>
          <polyline class="cls-5" points="127.36 128.64 127.36 -12.16 27.8 29.08 127.36 128.64"/>
          <polyline class="cls-5" points="127.36 128.64 -13.44 128.64 29.52 226.48"/>
          <line class="cls-5" x1="127.36" y1="128.64" x2="27.8" y2="228.2"/>
          <polyline class="cls-5" points="127.36 128.64 127.36 269.44 225.2 226.48"/>
          <line class="cls-5" x1="127.36" y1="128.64" x2="226.92" y2="228.2"/>
        </g>
      </g>
    </g>
    <circle class="cls-1" cx="128" cy="128" r="87.68"/>
  </g>
  <path class="cls-6" d="M181.46,136.51l-26.87,13.78c-.82.42-1.45,1.15-1.75,2.02l-9.83,28.59c-.86,2.5-4.04,3.24-5.91,1.37l-21.34-21.34c-.66-.66-1.54-1.03-2.47-1.05l-30.15-.52c-2.64-.05-4.32-2.84-3.13-5.19l13.67-26.98c.42-.82.5-1.78.23-2.66l-8.82-28.93c-.77-2.52,1.37-4.98,3.98-4.57l29.79,4.68c.92.14,1.85-.07,2.61-.61l24.7-17.34c2.16-1.52,5.17-.25,5.59,2.36l4.75,29.86c.15.91.64,1.73,1.38,2.29l24.09,18.2c2.1,1.59,1.82,4.83-.52,6.04Z"/>
  <path class="cls-2" d="M180.27,115.19l-19.45,23.1c-.6.71-.89,1.62-.83,2.54l2,30.17c.17,2.64-2.47,4.55-4.92,3.55l-27.93-11.43c-.86-.35-1.82-.36-2.68-.01l-28.01,11.18c-2.45.98-5.08-.95-4.89-3.58l2.17-30.17c.07-.92-.23-1.83-.82-2.54l-19.32-23.27c-1.69-2.03-.67-5.13,1.9-5.76l29.28-7.2c.9-.22,1.68-.78,2.17-1.57l16.07-25.54c1.41-2.24,4.67-2.23,6.07.02l15.93,25.7c.49.79,1.26,1.35,2.15,1.58l29.26,7.47c2.56.65,3.55,3.75,1.85,5.77Z"/>
</svg>